<mxfile host="Electron" modified="2025-05-29T18:41:33.591Z" agent="Mozilla/5.0 (Windows NT 10.0; Win64; x64) AppleWebKit/537.36 (KHTML, like Gecko) draw.io/22.1.2 Chrome/114.0.5735.289 Electron/25.9.4 Safari/537.36" etag="xKjy52NQVJSkXGiUx4M9" version="22.1.2" type="device">
  <diagram name="PÃ¡gina-1" id="1rvFWjbSmTvQolIVUPZ2">
    <mxGraphModel dx="1418" dy="820" grid="1" gridSize="10" guides="1" tooltips="1" connect="1" arrows="1" fold="1" page="1" pageScale="1" pageWidth="1169" pageHeight="1654" math="0" shadow="0">
      <root>
        <mxCell id="0" />
        <mxCell id="1" parent="0" />
        <mxCell id="xCYNOz3VcvB7a9EumKLC-3" value="Jugador" style="shape=umlActor;verticalLabelPosition=bottom;verticalAlign=top;html=1;" vertex="1" parent="1">
          <mxGeometry x="50" y="270" width="30" height="60" as="geometry" />
        </mxCell>
        <mxCell id="xCYNOz3VcvB7a9EumKLC-5" value="Monopoly" style="shape=umlFrame;whiteSpace=wrap;html=1;pointerEvents=0;" vertex="1" parent="1">
          <mxGeometry x="110" y="10" width="680" height="580" as="geometry" />
        </mxCell>
        <mxCell id="xCYNOz3VcvB7a9EumKLC-25" style="edgeStyle=none;shape=connector;rounded=0;orthogonalLoop=1;jettySize=auto;html=1;labelBackgroundColor=default;strokeColor=default;align=center;verticalAlign=middle;fontFamily=Helvetica;fontSize=11;fontColor=default;endArrow=none;endFill=0;" edge="1" parent="1" source="xCYNOz3VcvB7a9EumKLC-13" target="xCYNOz3VcvB7a9EumKLC-3">
          <mxGeometry relative="1" as="geometry" />
        </mxCell>
        <mxCell id="xCYNOz3VcvB7a9EumKLC-13" value="Iniciar partida" style="ellipse;whiteSpace=wrap;html=1;" vertex="1" parent="1">
          <mxGeometry x="250" y="280" width="120" height="40" as="geometry" />
        </mxCell>
        <mxCell id="xCYNOz3VcvB7a9EumKLC-27" style="edgeStyle=none;shape=connector;rounded=0;orthogonalLoop=1;jettySize=auto;html=1;labelBackgroundColor=default;strokeColor=default;align=center;verticalAlign=middle;fontFamily=Helvetica;fontSize=11;fontColor=default;endArrow=block;endFill=0;" edge="1" parent="1" source="xCYNOz3VcvB7a9EumKLC-16" target="xCYNOz3VcvB7a9EumKLC-13">
          <mxGeometry relative="1" as="geometry" />
        </mxCell>
        <mxCell id="xCYNOz3VcvB7a9EumKLC-16" value="cargar datos" style="ellipse;whiteSpace=wrap;html=1;" vertex="1" parent="1">
          <mxGeometry x="120" y="420" width="120" height="40" as="geometry" />
        </mxCell>
        <mxCell id="xCYNOz3VcvB7a9EumKLC-26" style="edgeStyle=none;shape=connector;rounded=0;orthogonalLoop=1;jettySize=auto;html=1;labelBackgroundColor=default;strokeColor=default;align=center;verticalAlign=middle;fontFamily=Helvetica;fontSize=11;fontColor=default;endArrow=block;endFill=0;" edge="1" parent="1" source="xCYNOz3VcvB7a9EumKLC-17" target="xCYNOz3VcvB7a9EumKLC-13">
          <mxGeometry relative="1" as="geometry" />
        </mxCell>
        <mxCell id="xCYNOz3VcvB7a9EumKLC-17" value="Nueva" style="ellipse;whiteSpace=wrap;html=1;" vertex="1" parent="1">
          <mxGeometry x="250" y="420" width="120" height="40" as="geometry" />
        </mxCell>
        <mxCell id="xCYNOz3VcvB7a9EumKLC-21" value="extends" style="edgeStyle=none;shape=connector;rounded=0;orthogonalLoop=1;jettySize=auto;html=1;labelBackgroundColor=default;strokeColor=default;align=center;verticalAlign=middle;fontFamily=Helvetica;fontSize=11;fontColor=default;endArrow=classic;endFill=1;dashed=1;" edge="1" parent="1" source="xCYNOz3VcvB7a9EumKLC-18" target="xCYNOz3VcvB7a9EumKLC-17">
          <mxGeometry relative="1" as="geometry" />
        </mxCell>
        <mxCell id="xCYNOz3VcvB7a9EumKLC-18" value="Cargar" style="ellipse;whiteSpace=wrap;html=1;" vertex="1" parent="1">
          <mxGeometry x="180" y="530" width="120" height="40" as="geometry" />
        </mxCell>
        <mxCell id="xCYNOz3VcvB7a9EumKLC-22" value="extends" style="edgeStyle=none;shape=connector;rounded=0;orthogonalLoop=1;jettySize=auto;html=1;labelBackgroundColor=default;strokeColor=default;align=center;verticalAlign=middle;fontFamily=Helvetica;fontSize=11;fontColor=default;endArrow=classic;endFill=1;dashed=1;" edge="1" parent="1" source="xCYNOz3VcvB7a9EumKLC-20" target="xCYNOz3VcvB7a9EumKLC-17">
          <mxGeometry relative="1" as="geometry" />
        </mxCell>
        <mxCell id="xCYNOz3VcvB7a9EumKLC-20" value="Crear jugadores" style="ellipse;whiteSpace=wrap;html=1;" vertex="1" parent="1">
          <mxGeometry x="320" y="530" width="120" height="40" as="geometry" />
        </mxCell>
        <mxCell id="xCYNOz3VcvB7a9EumKLC-29" style="edgeStyle=none;shape=connector;rounded=0;orthogonalLoop=1;jettySize=auto;html=1;labelBackgroundColor=default;strokeColor=default;align=center;verticalAlign=middle;fontFamily=Helvetica;fontSize=11;fontColor=default;endArrow=classic;endFill=1;dashed=1;" edge="1" parent="1" source="xCYNOz3VcvB7a9EumKLC-28" target="xCYNOz3VcvB7a9EumKLC-13">
          <mxGeometry relative="1" as="geometry" />
        </mxCell>
        <mxCell id="xCYNOz3VcvB7a9EumKLC-57" value="extends" style="edgeLabel;html=1;align=center;verticalAlign=middle;resizable=0;points=[];fontSize=11;fontFamily=Helvetica;fontColor=default;" vertex="1" connectable="0" parent="xCYNOz3VcvB7a9EumKLC-29">
          <mxGeometry x="-0.2504" y="-2" relative="1" as="geometry">
            <mxPoint as="offset" />
          </mxGeometry>
        </mxCell>
        <mxCell id="xCYNOz3VcvB7a9EumKLC-34" value="include" style="edgeStyle=none;shape=connector;rounded=0;orthogonalLoop=1;jettySize=auto;html=1;labelBackgroundColor=default;strokeColor=default;align=center;verticalAlign=middle;fontFamily=Helvetica;fontSize=11;fontColor=default;endArrow=classic;endFill=1;dashed=1;" edge="1" parent="1" source="xCYNOz3VcvB7a9EumKLC-28" target="xCYNOz3VcvB7a9EumKLC-30">
          <mxGeometry relative="1" as="geometry" />
        </mxCell>
        <mxCell id="xCYNOz3VcvB7a9EumKLC-35" value="include" style="edgeStyle=none;shape=connector;rounded=0;orthogonalLoop=1;jettySize=auto;html=1;labelBackgroundColor=default;strokeColor=default;align=center;verticalAlign=middle;fontFamily=Helvetica;fontSize=11;fontColor=default;endArrow=classic;endFill=1;dashed=1;" edge="1" parent="1" source="xCYNOz3VcvB7a9EumKLC-28" target="xCYNOz3VcvB7a9EumKLC-31">
          <mxGeometry relative="1" as="geometry" />
        </mxCell>
        <mxCell id="xCYNOz3VcvB7a9EumKLC-37" value="include" style="edgeStyle=none;shape=connector;rounded=0;orthogonalLoop=1;jettySize=auto;html=1;labelBackgroundColor=default;strokeColor=default;align=center;verticalAlign=middle;fontFamily=Helvetica;fontSize=11;fontColor=default;endArrow=classic;endFill=1;dashed=1;" edge="1" parent="1" source="xCYNOz3VcvB7a9EumKLC-28" target="xCYNOz3VcvB7a9EumKLC-36">
          <mxGeometry relative="1" as="geometry" />
        </mxCell>
        <mxCell id="xCYNOz3VcvB7a9EumKLC-28" value="Tirar" style="ellipse;whiteSpace=wrap;html=1;" vertex="1" parent="1">
          <mxGeometry x="250" y="120" width="120" height="40" as="geometry" />
        </mxCell>
        <mxCell id="xCYNOz3VcvB7a9EumKLC-30" value="mover" style="ellipse;whiteSpace=wrap;html=1;" vertex="1" parent="1">
          <mxGeometry x="360" y="30" width="120" height="40" as="geometry" />
        </mxCell>
        <mxCell id="xCYNOz3VcvB7a9EumKLC-31" value="Mostrar tablero" style="ellipse;whiteSpace=wrap;html=1;" vertex="1" parent="1">
          <mxGeometry x="460" y="70" width="120" height="40" as="geometry" />
        </mxCell>
        <mxCell id="xCYNOz3VcvB7a9EumKLC-51" value="" style="edgeStyle=none;shape=connector;rounded=0;orthogonalLoop=1;jettySize=auto;html=1;labelBackgroundColor=default;strokeColor=default;align=center;verticalAlign=middle;fontFamily=Helvetica;fontSize=11;fontColor=default;endArrow=none;endFill=0;startArrow=block;startFill=0;" edge="1" parent="1" source="xCYNOz3VcvB7a9EumKLC-36" target="xCYNOz3VcvB7a9EumKLC-49">
          <mxGeometry x="-0.0079" relative="1" as="geometry">
            <mxPoint as="offset" />
          </mxGeometry>
        </mxCell>
        <mxCell id="xCYNOz3VcvB7a9EumKLC-53" value="" style="edgeStyle=none;shape=connector;rounded=0;orthogonalLoop=1;jettySize=auto;html=1;labelBackgroundColor=default;strokeColor=default;align=center;verticalAlign=middle;fontFamily=Helvetica;fontSize=11;fontColor=default;endArrow=none;endFill=0;startArrow=block;startFill=0;" edge="1" parent="1" source="xCYNOz3VcvB7a9EumKLC-36" target="xCYNOz3VcvB7a9EumKLC-52">
          <mxGeometry relative="1" as="geometry" />
        </mxCell>
        <mxCell id="xCYNOz3VcvB7a9EumKLC-36" value="Aplicar efecto casilla" style="ellipse;whiteSpace=wrap;html=1;" vertex="1" parent="1">
          <mxGeometry x="450" y="140" width="120" height="40" as="geometry" />
        </mxCell>
        <mxCell id="xCYNOz3VcvB7a9EumKLC-41" style="edgeStyle=none;shape=connector;rounded=0;orthogonalLoop=1;jettySize=auto;html=1;labelBackgroundColor=default;strokeColor=default;align=center;verticalAlign=middle;fontFamily=Helvetica;fontSize=11;fontColor=default;endArrow=classic;endFill=1;dashed=1;" edge="1" parent="1" source="xCYNOz3VcvB7a9EumKLC-40" target="xCYNOz3VcvB7a9EumKLC-13">
          <mxGeometry relative="1" as="geometry" />
        </mxCell>
        <mxCell id="xCYNOz3VcvB7a9EumKLC-58" value="extends" style="edgeLabel;html=1;align=center;verticalAlign=middle;resizable=0;points=[];fontSize=11;fontFamily=Helvetica;fontColor=default;" vertex="1" connectable="0" parent="xCYNOz3VcvB7a9EumKLC-41">
          <mxGeometry x="-0.247" y="-2" relative="1" as="geometry">
            <mxPoint as="offset" />
          </mxGeometry>
        </mxCell>
        <mxCell id="xCYNOz3VcvB7a9EumKLC-40" value="Intercambiar" style="ellipse;whiteSpace=wrap;html=1;" vertex="1" parent="1">
          <mxGeometry x="490" y="240" width="120" height="40" as="geometry" />
        </mxCell>
        <mxCell id="xCYNOz3VcvB7a9EumKLC-43" style="edgeStyle=none;shape=connector;rounded=0;orthogonalLoop=1;jettySize=auto;html=1;labelBackgroundColor=default;strokeColor=default;align=center;verticalAlign=middle;fontFamily=Helvetica;fontSize=11;fontColor=default;endArrow=classic;endFill=1;dashed=1;" edge="1" parent="1" source="xCYNOz3VcvB7a9EumKLC-42" target="xCYNOz3VcvB7a9EumKLC-13">
          <mxGeometry relative="1" as="geometry" />
        </mxCell>
        <mxCell id="xCYNOz3VcvB7a9EumKLC-45" value="extends" style="edgeStyle=none;shape=connector;rounded=0;orthogonalLoop=1;jettySize=auto;html=1;labelBackgroundColor=default;strokeColor=default;align=center;verticalAlign=middle;fontFamily=Helvetica;fontSize=11;fontColor=default;endArrow=classic;endFill=1;dashed=1;" edge="1" parent="1" source="xCYNOz3VcvB7a9EumKLC-42" target="xCYNOz3VcvB7a9EumKLC-13">
          <mxGeometry relative="1" as="geometry" />
        </mxCell>
        <mxCell id="xCYNOz3VcvB7a9EumKLC-44" value="Pasar turno" style="ellipse;whiteSpace=wrap;html=1;" vertex="1" parent="1">
          <mxGeometry x="510" y="350" width="120" height="40" as="geometry" />
        </mxCell>
        <mxCell id="xCYNOz3VcvB7a9EumKLC-50" value="" style="edgeStyle=none;shape=connector;rounded=0;orthogonalLoop=1;jettySize=auto;html=1;labelBackgroundColor=default;strokeColor=default;align=center;verticalAlign=middle;fontFamily=Helvetica;fontSize=11;fontColor=default;endArrow=block;endFill=0;" edge="1" parent="1" source="xCYNOz3VcvB7a9EumKLC-47" target="xCYNOz3VcvB7a9EumKLC-36">
          <mxGeometry relative="1" as="geometry" />
        </mxCell>
        <mxCell id="xCYNOz3VcvB7a9EumKLC-47" value="Comprar calle" style="ellipse;whiteSpace=wrap;html=1;" vertex="1" parent="1">
          <mxGeometry x="650" y="60" width="120" height="40" as="geometry" />
        </mxCell>
        <mxCell id="xCYNOz3VcvB7a9EumKLC-49" value="Pagar alquiler" style="ellipse;whiteSpace=wrap;html=1;" vertex="1" parent="1">
          <mxGeometry x="650" y="110" width="120" height="40" as="geometry" />
        </mxCell>
        <mxCell id="xCYNOz3VcvB7a9EumKLC-52" value="Carta suerte" style="ellipse;whiteSpace=wrap;html=1;" vertex="1" parent="1">
          <mxGeometry x="650" y="170" width="120" height="40" as="geometry" />
        </mxCell>
        <mxCell id="xCYNOz3VcvB7a9EumKLC-55" value="extends" style="edgeStyle=none;shape=connector;rounded=0;orthogonalLoop=1;jettySize=auto;html=1;labelBackgroundColor=default;strokeColor=default;align=center;verticalAlign=middle;fontFamily=Helvetica;fontSize=11;fontColor=default;endArrow=classic;endFill=1;dashed=1;" edge="1" parent="1" source="xCYNOz3VcvB7a9EumKLC-54" target="xCYNOz3VcvB7a9EumKLC-13">
          <mxGeometry relative="1" as="geometry" />
        </mxCell>
        <mxCell id="xCYNOz3VcvB7a9EumKLC-54" value="Finalizar" style="ellipse;whiteSpace=wrap;html=1;" vertex="1" parent="1">
          <mxGeometry x="460" y="410" width="120" height="40" as="geometry" />
        </mxCell>
        <mxCell id="xCYNOz3VcvB7a9EumKLC-62" value="" style="edgeStyle=none;shape=connector;rounded=0;orthogonalLoop=1;jettySize=auto;html=1;labelBackgroundColor=default;strokeColor=default;align=center;verticalAlign=middle;fontFamily=Helvetica;fontSize=11;fontColor=default;endArrow=classic;endFill=1;dashed=1;" edge="1" parent="1" source="xCYNOz3VcvB7a9EumKLC-44" target="xCYNOz3VcvB7a9EumKLC-13">
          <mxGeometry relative="1" as="geometry">
            <mxPoint x="636" y="384" as="sourcePoint" />
            <mxPoint x="434" y="286" as="targetPoint" />
          </mxGeometry>
        </mxCell>
        <mxCell id="xCYNOz3VcvB7a9EumKLC-63" value="extends" style="edgeLabel;html=1;align=center;verticalAlign=middle;resizable=0;points=[];fontSize=11;fontFamily=Helvetica;fontColor=default;" vertex="1" connectable="0" parent="xCYNOz3VcvB7a9EumKLC-62">
          <mxGeometry x="-0.3315" y="2" relative="1" as="geometry">
            <mxPoint as="offset" />
          </mxGeometry>
        </mxCell>
        <mxCell id="xCYNOz3VcvB7a9EumKLC-42" value="Edificar" style="ellipse;whiteSpace=wrap;html=1;" vertex="1" parent="1">
          <mxGeometry x="530" y="290" width="120" height="40" as="geometry" />
        </mxCell>
        <mxCell id="xCYNOz3VcvB7a9EumKLC-68" style="edgeStyle=none;shape=connector;rounded=0;orthogonalLoop=1;jettySize=auto;html=1;labelBackgroundColor=default;strokeColor=default;align=center;verticalAlign=middle;fontFamily=Helvetica;fontSize=11;fontColor=default;endArrow=block;endFill=0;" edge="1" parent="1" source="xCYNOz3VcvB7a9EumKLC-67" target="xCYNOz3VcvB7a9EumKLC-36">
          <mxGeometry relative="1" as="geometry" />
        </mxCell>
        <mxCell id="xCYNOz3VcvB7a9EumKLC-67" value="Ve a la cÃ¡rcel" style="ellipse;whiteSpace=wrap;html=1;" vertex="1" parent="1">
          <mxGeometry x="650" y="220" width="120" height="40" as="geometry" />
        </mxCell>
      </root>
    </mxGraphModel>
  </diagram>
</mxfile>
